<svg xmlns="http://www.w3.org/2000/svg" viewBox="0 0 89.83 90.15"><defs><style>.cls-1{fill:#143951;}.cls-2{fill:#54564f;}.cls-3{fill:#2b789d;}.cls-4{fill:#0e0c0a;}.cls-5{fill:#2a5b76;}.cls-6{fill:#beb6a1;}.cls-7{fill:#183b51;}.cls-8{fill:#272017;}.cls-9{fill:#2e2f29;}.cls-10{fill:#2d2d27;}.cls-11{fill:#6b6a65;}.cls-12{fill:#285a77;}.cls-13{fill:#4e4031;}.cls-14{fill:#b59072;}.cls-15{fill:#82827d;}.cls-16{fill:#6c6c66;}.cls-17{fill:#7196ed;}.cls-18{fill:#967a57;}.cls-19{fill:#ede9c9;}.cls-20{fill:#ece7c7;}.cls-21{fill:#9a7d59;}.cls-22{fill:#655440;}.cls-23{fill:#c0b7a1;}.cls-24{fill:#d0eff3;}.cls-25{fill:#c0af96;}.cls-26{fill:#565750;}.cls-27{fill:#554636;}.cls-28{fill:#725f4c;}</style></defs><g id="Layer_2" data-name="Layer 2"><g id="Layer_1-2" data-name="Layer 1"><g id="Layer_2-2" data-name="Layer 2"><g id="Layer_1-2-2" data-name="Layer 1-2"><path class="cls-1" d="M88.23,39.36c.56,1,1.67,2.09,1.6,3.07-.43,6.06-1,12.11-1.84,18.11-.21,1.41-1.86,2.6-2.85,3.89L81,69.27h0c-.84.52-1.71,1-2.52,1.55-3.67,2.52-7.2,5.19-12.2,3.93-.73-.19-1.73.7-2.61,1.09-2.13-1.3-3.06-.1-3.66,1.78l-3.55.65-3.59-5.5.41-2.85,2.28-4,.46-5c1.08-1.83,2.29-2.71,4.51-1.38a64.66,64.66,0,0,0,7,3.29c2.32,1,8-1.12,8.74-3a7.29,7.29,0,0,1,2.14-3.21c5-3.74,9-8,9.11-14.8Z"/><path class="cls-2" d="M35.07.66,43.42,0C43.36,2.48,45.11,2.78,47,3c2.61.35,5.2.77,7.79,1.15a8.22,8.22,0,0,0,.37,2.56c.94,1.79,2.1,3.47,3.18,5.19l-3.53,2.47c-3.11.4-2.19,2.85-2.41,4.73l-.51.08-.72-.08c.11-5.08,0-5.28-4.15-5.38l-3-2.33-.59.52a9.53,9.53,0,0,0,1,1.86c1.15,1.3,1,2.2-.54,3-4.55,2.5-9.17,5-13.73,7.5a14,14,0,0,0-1.63,1.24c1.61,3,3.26,5.84,4.6,8.79a3.13,3.13,0,0,0,3.69,2.1l.08,1.21-8.33.6H27.22l.71-3.58c.52-.93,1.64-2,1.43-2.73a5.34,5.34,0,0,0-2.48-2.51c-.27-.16-1.3,1-2,1.53l-1.09.17h-.64a26.56,26.56,0,0,0-1.37-2.89,2.36,2.36,0,0,0-1.25.3,20.6,20.6,0,0,0,.18,3.33c0,.35.42.65.64,1-2.49,2-4.87,4-4.17,7.76l-.62,1.24-.59.56-5.75,5.48c0-1.46.11-3,1-3.62,1.57-1.17.92-2.33.64-3.6V38.88l2.91-3a3.93,3.93,0,0,0,2.43-4.61c-.6-3.28,1-5.63,3.06-7.83.6-.64,1.16-1.33,1.73-2h2.08c6.53,0,10.84-4.45,10.92-11a3.1,3.1,0,0,1,1.19-2c3-2.34,3.1-3.1.72-5.93C36.31,1.89,35.68,1.27,35.07.66Z"/><path class="cls-3" d="M88.23,39.36c-.24.8-.48,1.6-.73,2.4-1.72,1-4.21,1.51-5,3-1,1.88-2,2.51-3.79,2.41-2-.11-3.28.44-3.85,2.72-.36,1.43-1.72,2.61-2.75,4.07-3.33-5.2-3.33-5.2-8.75-3.06-.37.15-.75.26-1.11.42-2.55,1.09-4.35.61-5-2.35l-1.14-2.6-.33-2.1,3.75-2.72,3,.8h3l4.78,2.85c4-.57,1.84-3.1,1.59-5,0-1.45.07-2.9.11-4.35l1.18-4.3.68.1,5.21,1.27,5.32,7.17.94-.4c-.1-.61,0-1.35-.32-1.8-1.29-1.89-2.7-3.7-4.07-5.53,2.49-1.61-.17-2.53-.5-3.76,0-2.49-2.07-2.72-3.66-3.5l-.65-1.83V18.58l3.22.34h0l.84.83a.8.8,0,0,1,.26.43L79.85,23l2.45-1,3,6c.15,3-1.57,6.46,2.32,8.39Z"/><path class="cls-4" d="M84,68c-1.58,6.86-6.07,11.63-12,14.56a99.72,99.72,0,0,1-18.32,6.77c-3.48.92-8,1.28-11-.25-2.43-1.26-5.77-1.67-7.54-4.31l2.41-1.29h1.77c2-.61,4.54-2.09,5.94,0,2.09,3.07,4.48,2.47,7.18,1.82.85.93,1.61,1.66,2.92.47a3.87,3.87,0,0,1,2.61-1c2.31.23,3.47-.82,4-2.88l1.86-3.1c2.06,1.37,4,.88,5.93-.33,3.1-1.93,6.34-3.62,9.31-5.71,1-.7,1.36-2.33,2-3.54h0Z"/><path class="cls-5" d="M35.07.66c.61.63,1.27,1.23,1.83,1.9,2.38,2.83,2.24,3.59-.72,5.93a3.1,3.1,0,0,0-1.19,2c-.08,6.52-4.39,10.92-10.92,11H22c-.56-1-1.83-2.36-1.55-3.07.87-2.15-.33-3.15-1.54-4.3a3.42,3.42,0,0,1,1.16-.62,21.36,21.36,0,0,1,2.53,0c2.68-.78,5.35-1.58,6.65-4.43l1.1-.64c3.7-1,4.53-2.94,2.41-5.51l-.08-1.65Z"/><path class="cls-4" d="M0,53.14V26.27H.43l3-1.8c.13.14.39.3.38.42-.4,3.77-2.7,7.43-.65,11.35.06.11-.13.35-.21.53-1.42,2.85-.62,5.54.55,8.23a8,8,0,0,1,1,3.3C4.41,51.47,6,53.05,8.81,53.76h.06v1.8L4.69,59.12Z"/><path class="cls-6" d="M30.31,8.44c-.37.21-.74.42-1.1.64-6.13-.35-6.65,0-6.65,4.43a21.36,21.36,0,0,0-2.53,0,3.42,3.42,0,0,0-1.16.62l-5.56,4.73-2.06-.93a41.29,41.29,0,0,1,2.88-3.44c.75-.74,2-1,2.61-1.84,1.85-2.55,3.48-5.25,5.2-7.9L32.67,1.27A11.89,11.89,0,0,0,32.75,3L26.93,6Z"/><path class="cls-4" d="M33.88,83.58c-4.23-1.76-8.5-3.43-12.67-5.3A28.2,28.2,0,0,1,16,75.1c-1.88-1.42-3.57-3.09-5.34-4.65.79-1.72,1.86-.88,2.89-.3,3,1.68,6,3.44,9,5,.57.28,1.58-.33,2.39-.53l3.59-.09-.71,1.29Z"/><path class="cls-7" d="M54.76,4.17C52.17,3.79,49.58,3.37,47,3c-1.86-.24-3.61-.54-3.55-3,3.28.21,6.65,0,9.82.71,6.27,1.39,12.37,3.4,17,8.26L69,9.6c-1.26-2-3-1.94-4.87-1.09l-1-.24C61.59,4.35,58.31,4,54.76,4.17Z"/><path class="cls-2" d="M21.92,4.75c-1.72,2.65-3.35,5.35-5.2,7.9-.59.82-1.86,1.1-2.61,1.84a41.29,41.29,0,0,0-2.88,3.44L7.16,19.78l2.27-6.05C12.56,9.27,16.31,5.78,21.92,4.75Z"/><path class="cls-8" d="M25,74.59c-.81.21-1.82.82-2.39.54-3.07-1.54-6-3.3-9-5-1-.58-2.1-1.42-2.89.3-.9-.84-2.08-1.52-2.64-2.54a26.07,26.07,0,0,1-1.61-4.62L11.21,65c2.43,3.23,5.1,5.9,9.55,5.42l3.55,1.24Z"/><path class="cls-8" d="M33.88,83.58,27.83,75.8l.71-1.29c5.18-2.67,7.55.69,9.72,4.74l-2.95,1.22,2.21,3-2.41,1.29Z"/><path class="cls-9" d="M11.21,65.08,6.42,63.27,4.69,59.12,8.9,55.53l2.41,1.79.51,3Z"/><path class="cls-5" d="M69.06,9.58,70.31,9l9.1,10-3.22-.34h.06L75.82,18,72.1,14.27l-4.19-2.46Z"/><path class="cls-10" d="M9.43,13.73c-.76,2-1.52,4-2.27,6.05l-2,3.54L3.48,24.47l-3,1.8c2.21-3.66,4.35-7.34,6.66-10.93C7.57,14.61,8.63,14.27,9.43,13.73Z"/><path class="cls-11" d="M87.64,36.39C83.75,34.46,85.47,31,85.32,28,86.09,30.8,86.87,33.59,87.64,36.39Z"/><path class="cls-9" d="M84,68,81,69.27l4.11-4.85C84.75,65.63,84.31,66.83,84,68Z"/><path class="cls-5" d="M82.31,22l-2.45,1,.61-2.78Z"/><path class="cls-5" d="M80.2,19.78,79.36,19Z"/><path class="cls-12" d="M57.31,48.94c.63,3,2.43,3.44,5,2.35.36-.16.74-.27,1.11-.42,5.42-2.14,5.42-2.14,8.75,3.06,1-1.46,2.39-2.64,2.75-4.07.57-2.28,1.84-2.83,3.85-2.72,1.83.1,2.82-.53,3.79-2.41.75-1.46,3.24-2,5-3-.06,6.77-4.08,11.06-9.11,14.8a7.29,7.29,0,0,0-2.14,3.21c-.71,1.9-6.42,4-8.74,3a64.66,64.66,0,0,1-7-3.29c-2.22-1.33-3.43-.45-4.51,1.38L52.42,61c.56-1.88,1.12-3.75,1.69-5.63v.07l.65-.86Z"/><path class="cls-9" d="M81,69.27c-.66,1.21-1,2.84-2,3.54-3,2.09-6.21,3.78-9.31,5.71-2,1.21-3.87,1.7-5.93.33,0-1,0-2-.07-3,.88-.39,1.88-1.28,2.61-1.09,5,1.26,8.53-1.41,12.2-3.93C79.31,70.27,80.19,69.79,81,69.27Z"/><path class="cls-13" d="M52.9,72.73l3.59,5.54c.27,2.3-.63,3.55-3.07,3.58a10.25,10.25,0,0,0-2.25.54c0-2.71-1.5-4.19-4-4.8-.66-.15-1.3-.38-1.94-.58l.08-1.24,4,.61.14-2.9C50.79,74.32,52,74.27,52.9,72.73Z"/><path class="cls-8" d="M51.17,82.35a10.25,10.25,0,0,1,2.25-.54c2.44,0,3.34-1.28,3.07-3.58L60,77.62,61.91,82c-.55,2.06-1.71,3.11-4,2.88a3.87,3.87,0,0,0-2.61,1c-1.31,1.19-2.07.46-2.92-.47C52,84.34,51.56,83.35,51.17,82.35Z"/><path class="cls-14" d="M52.38,61,56,60.88c-.15,1.68-.31,3.37-.46,5L50,66.27a5.86,5.86,0,0,0-.1-.58l1.31-3.53Z"/><path class="cls-15" d="M52.9,72.73c-.9,1.55-2.11,1.59-3.52.75l-1.77-1.21,1.75-3.61,4,1.26Z"/><path class="cls-2" d="M61.91,82,60,77.62c.6-1.88,1.53-3.08,3.66-1.78,0,1,0,2,.07,3Z"/><path class="cls-16" d="M53.31,69.92l-3.92-1.31c.22-.79.44-1.59.65-2.38l5.54-.3C54.81,67.26,54.06,68.59,53.31,69.92Z"/><path class="cls-16" d="M51.14,19.12l.72.08c-1.67,5.16-2.74,6.14-6.51,5.83a13.55,13.55,0,0,1-2-.48,21.35,21.35,0,0,0,1.17-3.28,2.72,2.72,0,0,0-.68-1.76c-.11-.15-1,0-1.25.26-1.51,1.44-3,2.95-4.78,4.81l3.92,1.12c-.06,1-.12,2-.19,3-1.28-.54-2.61-1.61-3.84-1.51-2.23.18-2.67,2.06-1.51,5.62l3.61-.54.57.86-3.58,3.34a3.13,3.13,0,0,1-3.69-2.1c-1.34-3-3-5.75-4.6-8.79a12.81,12.81,0,0,1,1.63-1.31c4.56-2.52,9.13-5,13.72-7.49,1.53-.83,1.69-1.73.54-3a9.53,9.53,0,0,1-1-1.86L44,11.4l3,2.33C47,18.19,47.07,18.34,51.14,19.12Z"/><path class="cls-1" d="M13.31,18.86l5.61-4.74c1.19,1.15,2.39,2.15,1.52,4.28-.28.71,1,2,1.55,3.07-.57.67-1.13,1.36-1.73,2C18.19,25.67,16.6,28,17.2,31.3a3.93,3.93,0,0,1-2.44,4.54L10,35.27c0-3.65-2.09-7.4.58-11,.28-.37,0-1.14,0-1.73v.1l.6-.56Z"/><path class="cls-11" d="M17.2,40.55c-.7-3.71,1.68-5.76,4.17-7.76l1.8-1.71h.64c-.18,1.35-.32,2.71-.55,4.06-.51,2.9,1,4.06,4,3.06h1.32c.27,3.68.49,3.83,4.12,3.06a15.09,15.09,0,0,1,1.78-.16l.06,1.81-3.6,2.51c-1.83-2.61-4.2-3.21-7.08-1.89l-.66-.62h0C21.79,40.7,20.07,39.19,17.2,40.55Z"/><path class="cls-9" d="M11.83,40.61c.28,1.27.93,2.43-.64,3.6-.84.62-1,2.16-1,3.62l5.75-5.48,1.81,1.79c-2.16,0-3,1.34-3.42,3.21,1.41,1,4.61-.72,4,2.82-3-.24-5.92-.47-6.63,3.53H8.79c-.07-1.6-.2-3.19-.22-4.78,0-3.06-.33-6.22,2.62-8.35Z"/><path class="cls-14" d="M41.54,28.71c.07-1,.13-2,.19-3l1.63-1.13a13.55,13.55,0,0,0,2,.48c3.77.31,4.84-.67,6.51-5.83l.51-.08,1.23,1.24a26.94,26.94,0,0,1-.14,4.4A9.94,9.94,0,0,1,52,27.54H44.45l1.27,3.35L41,31.61Z"/><path class="cls-15" d="M54.76,4.17c3.56-.19,6.83.18,8.37,4.11l-.07.28c-2.85-.68-2.76,2.3-4.2,3.37h-.55c-1.08-1.72-2.24-3.4-3.18-5.19A8,8,0,0,1,54.76,4.17Z"/><path class="cls-13" d="M17.8,44.14,16,42.35l.59-.56L23.19,43h0l.66.62c2.88-1.32,5.25-.72,7.08,1.89v.38Z"/><path class="cls-17" d="M36.79,36.44l3.58-3.34,6,4.83c-.72,2.34-2.71,1.18-4.16,1.51C41,36.73,38.72,38.59,37,38.13a1.92,1.92,0,0,0-.15-.48Z"/><path class="cls-14" d="M27.22,38.27c-3,1-4.47-.16-4-3.06.23-1.35.37-2.71.55-4.06L24.86,31c2.79-.22,2,2.47,3,3.71Z"/><path class="cls-18" d="M53.6,20.36l-1.23-1.24c.22-1.88-.7-4.33,2.41-4.73-.14,1.28-.29,2.56-.48,4.29,1.28-.79,2.19-1.28,3-1.88s1.47-1.21,2.2-1.82h1.73c-.4,1.33-.81,2.65-1.21,4L57.1,20.3Z"/><path class="cls-5" d="M36.87,37.65a1.92,1.92,0,0,1,.15.48l-2.58,3a15.09,15.09,0,0,0-1.78.16c-3.63.77-3.85.62-4.12-3.06Z"/><path class="cls-14" d="M59.53,15c-.73.61-1.43,1.27-2.2,1.82s-1.75,1.09-3,1.88c.19-1.73.34-3,.48-4.29l3.5-2.47h.55C59.08,13,59.31,14,59.53,15Z"/><path class="cls-14" d="M51.14,19.12c-4.07-.78-4.19-.93-4.15-5.38C51.09,13.84,51.25,14,51.14,19.12Z"/><path class="cls-11" d="M27.93,34.64c-1-1.24-.24-3.93-3-3.71.68-.54,1.71-1.69,2-1.53a5.34,5.34,0,0,1,2.48,2.51C29.57,32.61,28.45,33.71,27.93,34.64Z"/><path class="cls-5" d="M23.17,31.08l-1.8,1.71c-.22-.32-.6-.62-.64-1a20.6,20.6,0,0,1-.18-3.33,2.36,2.36,0,0,1,1.25-.3C22.31,29.11,22.73,30.11,23.17,31.08Z"/><path class="cls-9" d="M23.19,43l-6.61-1.18.62-1.24C20.07,39.19,21.79,40.7,23.19,43Z"/><path class="cls-1" d="M11.83,40.61h-.62c-1.62-1-3.82-1.72-1.77-4.24l2.41,2.45Z"/><path class="cls-9" d="M11.85,38.84,9.44,36.39,10,35.27l4.75.57Z"/><path class="cls-19" d="M57.31,48.94l-2.6,5.68c-.22.29-.44.57-.65.86v-.07l-3.75,3.38-3.13-2.47c1.85-3.42.45-5.64-2.64-7.29-.42-.22-1-.67-1-1A7.84,7.84,0,0,1,44.1,46c1.87.65,3.72,1.37,5.62,1.93a4,4,0,0,0,2.18,0c1.45-.41,2.85-1,4.27-1.52Z"/><path class="cls-20" d="M73.22,31.53c-.39,1.44-.79,2.87-1.18,4.3l-2.22,1.71c-1.69-2.7-3.46-3-5.2-.54-1.09,1.52-1.42,3.57-2.09,5.38l-3-.8L57,38.27c1.86-.43,2.56-1.56,2-3.42a16.29,16.29,0,0,0,11.08-5.29Z"/><path class="cls-15" d="M56.11,46.37c-1.42.52-2.82,1.11-4.27,1.52a4,4,0,0,1-2.18,0c-1.9-.56-3.75-1.28-5.62-1.93.34-3.4,3-2.11,4.84-2.38l1.74-2.43,5.16,3.12Z"/><path class="cls-21" d="M76.14,23.27l.68,1.83-2.51,1.28-3.17-2.32-3.26,1.63c-2-.86-.51-2-.29-3.09.16-.79.3-2.09-.11-2.38a4.16,4.16,0,0,0-2.69-.32c-.6.07-1.14.66-1.71,1,.16-1.83.49-3.34,3-2.53.43.14,1.18-.69,1.78-1.08l3,.64-.69,4.25.67-.74Z"/><path class="cls-22" d="M55.78,44.27l-5.16-3.16v-1c1-.44,3.11.64,2.48-1.9l2.71-.61,1.26.67,2.49,3.32Z"/><path class="cls-15" d="M62.53,42.38c.67-1.81,1-3.86,2.09-5.38,1.74-2.44,3.51-2.16,5.2.54L72,35.83c0,1.45-.08,2.9-.11,4.35l-2.75-.64-2-3-.88.76-.84,5.07Z"/><path class="cls-18" d="M73.22,31.53l-3.08-2c.25-2.76,2.77-1.9,4.25-2.69l4.74,2.43c-.72,1.62-1.83,2.11-3.5,1.31-1-.46-1.92-.58-1.73,1Z"/><path class="cls-16" d="M65.48,42.42l.83-5.07.88-.76,2,3c.39,1.89.77,3.77,1.16,5.66Z"/><path class="cls-6" d="M73.9,31.63c-.19-1.63.75-1.51,1.73-1,1.67.8,2.78.31,3.5-1.31l1.35-.69c.33,1.23,3,2.15.5,3.76L79.11,33Z"/><path class="cls-23" d="M76.14,23.27l-5.32-1.79-.67.74L70.84,18l1.47-.7c1.41,1,1.11,3.92,3.82,3.59Z"/><path class="cls-15" d="M79.11,32.9,81,32.34c1.37,1.83,2.78,3.64,4.07,5.53.32.45.22,1.19.32,1.8l-.94.4Z"/><path class="cls-6" d="M70.31,45.2c-.39-1.89-.77-3.77-1.16-5.66l2.75.64C72.18,42.1,74.37,44.63,70.31,45.2Z"/><path class="cls-14" d="M76.14,20.87c-2.71.33-2.41-2.54-3.82-3.59-.08-1-.15-2-.22-3L75.77,18l.43.63h-.06Z"/><path class="cls-14" d="M80.48,28.58l-1.35.69-4.74-2.4a4.1,4.1,0,0,0-.06-.49l2.49-1.3C78.41,25.86,80.53,26.09,80.48,28.58Z"/><path class="cls-13" d="M37.47,83.51l-2.16-3,3-1.2c-2.17-4-4.54-7.41-9.72-4.74L25,74.62c-.22-1-.45-1.93-.67-2.9,3.33-1.12,6.51-3.3,10.23-1.29H36.9a17.29,17.29,0,0,0,3.75,2.39c1.91.62,3.13,1.43,2.84,3.62l-3.18-.55,1.6,4.17-2.69,3.48Z"/><path class="cls-10" d="M39.24,83.54l2.69-3.48-1.62-4.17,3.11.5,1.76.58c.64.2,1.28.43,1.94.58,2.53.61,4,2.09,4,4.8.39,1,.79,2,1.19,3-2.7.65-5.09,1.25-7.18-1.82C43.78,81.45,41.25,82.93,39.24,83.54Z"/><path class="cls-24" d="M30.31,8.44,26.9,6l5.82-3.07C34.87,5.5,34,7.4,30.31,8.44Z"/><path class="cls-24" d="M22.59,13.51c0-4.44.52-4.78,6.65-4.43C27.94,11.93,25.31,12.73,22.59,13.51Z"/><path class="cls-8" d="M10,35.27l-.57,1.12c-2,2.52.15,3.26,1.77,4.24-3,2.13-2.65,5.29-2.62,8.35,0,1.59.15,3.18.22,4.78C6,53.05,4.41,51.47,4.6,48.27a8,8,0,0,0-1-3.3c-1.17-2.69-2-5.38-.55-8.23.08-.18.27-.42.21-.53-2-3.92.25-7.58.65-11.35,0-.12-.25-.28-.38-.42L5.2,23.29l5.44-.73c0,.59.28,1.36,0,1.73C7.92,27.87,10.05,31.62,10,35.27Z"/><path class="cls-13" d="M8.87,53.73h2.85c.45,1.2.89,2.41,1.34,3.61H11.31L8.9,55.53Z"/><path class="cls-15" d="M10.59,22.59l-5.44.73,2-3.54,4.07-1.85,2.06.93-2.09,3.27-.6.56Z"/><path class="cls-25" d="M67.88,17.27c-.6.39-1.35,1.22-1.78,1.08-2.51-.81-2.84.7-3,2.53H61.88L60.05,19c.4-1.33.81-2.65,1.21-4,3.25-1.41,1.31-4.27,1.8-6.46l.07-.28,1.06.21,1.3,3.48C66.16,13.8,69.31,14.55,67.88,17.27Z"/><path class="cls-16" d="M65.49,12l-1.3-3.48c1.89-.85,3.61-.87,4.87,1.09-.38.75-.77,1.49-1.15,2.23Z"/><path class="cls-2" d="M11.31,57.32h4.08l6.48,4c-.46,1.1-1.14,1.94-1,2.59S22,65,22.68,65.32A9.77,9.77,0,0,0,25,65.8l1.17,1,6-.59,2.36.13.05,4c-3.72-2-6.9.17-10.23,1.29l-3.52-1.24c-1.47-1.83-2.47-4.68-4.39-5.39-2.58-1-3.44-2.79-4.6-4.71Z"/><path class="cls-13" d="M11.79,60.27c1.16,1.92,2,3.74,4.6,4.71,1.88.71,2.94,3.56,4.37,5.46-4.45.5-7.12-2.17-9.55-5.36C11.4,63.48,11.59,61.89,11.79,60.27Z"/><path class="cls-19" d="M65.49,12l2.42-.16,4.19,2.46c.07,1,.14,2,.22,3l-1.48.67-3-.64C69.31,14.55,66.16,13.8,65.49,12Z"/><path class="cls-3" d="M76.2,18.57l-.43-.63Z"/><path class="cls-26" d="M45.2,77l-1.76-.58c.29-2.19-.93-3-2.84-3.62a17.29,17.29,0,0,1-3.75-2.39c1-2,2-4,4.7-4.25,1.85-.2,2.54-1.44,2.52-3.36s-1.09-2.5-2.76-2.61l-4.73-8.8c2.11,1,3.44,1.75,4.81,2.39,1.91.88,3.84,1.72,5.76,2.57l3.16,2.47,3.81-3.38C53.55,57.29,53,59.16,52.43,61l-1.16,1.08c-1.85-.56-3.64-2.12-6-.31l4.65,3.84a5.86,5.86,0,0,1,.1.58c-.21.79-.43,1.59-.65,2.38l-1.76,3.66c-1.62.63-2.85,1.52-2.32,3.55Z"/><path class="cls-26" d="M54.06,55.48c.21-.29.43-.57.65-.86Z"/><path class="cls-9" d="M45.31,75.77c-.53-2,.7-2.92,2.32-3.55l1.77,1.26c0,.84-.08,1.68-.14,2.9Z"/><path class="cls-16" d="M49.91,65.65l-4.6-3.84c2.32-1.81,4.11-.25,6,.31A37.51,37.51,0,0,0,49.91,65.65Z"/><path class="cls-19" d="M46.41,37.93l-6-4.83-.61-.83L41,31.61l4.71-.72-1.27-3.35H52c.09,2.29-1.93,5.5,3.57,5.73l-3.22,3.15L51.16,37C49.31,35.94,47.57,35.36,46.41,37.93Z"/><path class="cls-26" d="M41,31.58l-1.21.69-3.61.58c-1.16-3.56-.72-5.44,1.51-5.62,1.23-.1,2.56,1,3.84,1.51C41.37,29.67,41.19,30.62,41,31.58Z"/><path class="cls-18" d="M43.36,24.55l-1.63,1.13-3.92-1.12c1.83-1.86,3.27-3.37,4.78-4.81.27-.27,1.14-.41,1.25-.26a2.76,2.76,0,0,1,.68,1.78A21.3,21.3,0,0,1,43.36,24.55Z"/><path class="cls-8" d="M10.6,22.69l.6-.56Z"/><path class="cls-18" d="M34.44,41.15l2.58-3c1.74.46,4-1.4,5.23,1.31l1.2,1.72L36.25,43H34.5Z"/><path class="cls-27" d="M34.5,43h1.75l-.78,3-4.56-.13v-.38Z"/><path class="cls-9" d="M23.82,43.58,23.16,43Z"/><path class="cls-7" d="M30.91,45.85l4.56.13,2,2.72-3.16.88c-2.48.67-5.51.7-7.29,2.2a4.18,4.18,0,0,1-5,.81l-3.61-1.24V50.17c.64-3.54-2.56-1.83-4-2.82.43-1.87,1.26-3.21,3.42-3.21Z"/><path class="cls-16" d="M18.31,50.17v1.18a5.52,5.52,0,0,0-3,6H13c-.45-1.2-.89-2.41-1.34-3.61C12.43,49.7,15.39,49.93,18.31,50.17Z"/><path class="cls-27" d="M52.31,36.42l3.22-3.15C50,33,52.05,29.83,52,27.54a9.94,9.94,0,0,0,1.5-2.75,26.94,26.94,0,0,0,.14-4.4h3.53A11.48,11.48,0,0,1,57.31,23c-.42,2.53-1,5-1.51,7.55l.8.54,4.18-2.41a12.43,12.43,0,0,1,1.14.89c2.39,2.28,4.18,1.84,5.3-1.36.28-.82.47-1.68.7-2.53l3.26-1.63,3.13,2.32a4.1,4.1,0,0,1,.06.49c-1.48.79-4-.07-4.25,2.69A16.34,16.34,0,0,1,59,34.84l-3.44-.78.16,3.53-2.71.61Z"/><path class="cls-19" d="M63.06,8.56c-.49,2.19,1.45,5-1.8,6.46H59.53c-.23-1-.45-2-.67-3C60.31,10.86,60.21,7.88,63.06,8.56Z"/><path class="cls-28" d="M43.45,41.16l-1.2-1.72c1.45-.33,3.44.83,4.16-1.51,1.16-2.57,2.93-2,4.79-.93l-1.41,1.75-4,2.41Z"/><path class="cls-20" d="M60.76,28.69,56.58,31.1l-.8-.54c.51-2.51,1.09-5,1.51-7.55a11,11,0,0,0-.16-2.69L60.05,19l1.83,1.93a35.93,35.93,0,0,1-.11,4.28A23.47,23.47,0,0,1,60.76,28.69Z"/><path class="cls-23" d="M43.45,41.16h2.38l3,2.41c-1.87.27-4.5-1-4.84,2.38A7.84,7.84,0,0,0,43.43,48c0,.34.59.79,1,1,3.09,1.65,4.49,3.87,2.64,7.29-1.91-.85-3.84-1.69-5.75-2.57-1.37-.64-2.7-1.34-4.81-2.39l4.8,8.81c-.67,1.76-1.33,3.52-2,5.29-1.43.92-3.86-3-4.78,1l-2.43-.18c-.15-.6-.31-1.2-.46-1.8l-2.55-2.38c-.52-2.78-1.69-4.78-4.76-5.69-1.06-.31-1.57-2.5-2.34-3.82a4.18,4.18,0,0,0,5-.81c1.76-1.5,4.79-1.5,7.32-2.19l3.24-.88-2-2.72.78-3Z"/><path class="cls-14" d="M55.78,37.59l-.16-3.53,3.44.78c.54,1.86-.16,3-2,3.42Z"/><path class="cls-21" d="M48.88,43.57l-3-2.41,4-2.41.8,1.35v1Z"/><path class="cls-23" d="M60.76,28.69a23.43,23.43,0,0,0,1-3.48,35.93,35.93,0,0,0,.11-4.28h1.22c.57-.36,1.11-.95,1.71-1a4.16,4.16,0,0,1,2.69.32c.41.29.27,1.59.11,2.38-.22,1.1-1.7,2.23.29,3.09-.23.85-.42,1.71-.7,2.53-1.12,3.2-2.91,3.64-5.3,1.36A14.18,14.18,0,0,0,60.76,28.69Z"/><path class="cls-25" d="M50.59,40.1l-.8-1.35L51.2,37l1.11-.58L53,38.2C53.7,40.74,51.56,39.66,50.59,40.1Z"/><path class="cls-18" d="M34.46,66.41c.92-3.93,3.35,0,4.78-1,.67-1.77,1.33-3.54,2-5.29,1.69.06,2.77.57,2.78,2.61s-.67,3.16-2.52,3.36c-2.69.28-3.65,2.27-4.7,4.25H34.46C34.49,69.08,34.47,67.75,34.46,66.41Z"/><path class="cls-15" d="M22,52.59c.77,1.32,1.28,3.51,2.34,3.82,3.07.91,4.24,2.91,4.76,5.69-2.86-.4-4.16.92-4.13,3.72a9.77,9.77,0,0,1-2.27-.48C22,65,21,64.48,20.88,63.88s.53-1.49,1-2.59l-6.51-3.94a5.52,5.52,0,0,1,3-6Z"/><path class="cls-16" d="M25,65.82c0-2.8,1.27-4.12,4.13-3.72l2.55,2.38-5.51,2.39Z"/><path class="cls-15" d="M26.13,66.87l5.51-2.39c.15.6.31,1.2.46,1.8Z"/></g></g></g></g></svg>