<svg xmlns="http://www.w3.org/2000/svg" viewBox="0 0 72.6 66.6"><defs><style>.cls-1{fill:#010100;}.cls-2{fill:#ee9d2f;}.cls-3{fill:#a35a18;}.cls-4{fill:#ca7822;}.cls-5{fill:#0e0c09;}.cls-6{fill:#a05818;}.cls-7{fill:#272016;}.cls-8{fill:#744d21;}.cls-9{fill:#4b3115;}.cls-10{fill:#0f0d0b;}.cls-11{fill:#292116;}.cls-12{fill:#c97822;}.cls-13{fill:#a65c19;}.cls-14{fill:#a85e1a;}.cls-15{fill:#f4db73;}.cls-16{fill:#cc7b23;}.cls-17{fill:#633b14;}.cls-18{fill:#633b15;}.cls-19{fill:#754d22;}.cls-20{fill:#754e22;}.cls-21{fill:#744d22;}.cls-22{fill:#a75d19;}.cls-23{fill:#482f15;}.cls-24{fill:#784e21;}.cls-25{fill:#4a3016;}</style></defs><g id="Layer_2" data-name="Layer 2"><g id="Layer_1-2" data-name="Layer 1"><path class="cls-1" d="M72.6,66.6H0V0H72.6ZM58.79,58.79a6.76,6.76,0,0,0,6-6c1.5-2,3.5-3.68,3-6.55.48-.61,1.32-1.19,1.37-1.83.41-5,1.25-10.14.78-15.11s-2-9.8-6.41-13a13.12,13.12,0,0,0-2.32-3C58.11,11.07,54.84,9,51.63,6.94L43.19,4.83c-9.48-1.86-18-.41-24.85,7.09l-2.87,2.41c-1.34,1.38-3.08,2.54-3.94,4.17a92,92,0,0,0-3.68,9.07,5.89,5.89,0,0,0-.54,1.7C7.31,39.36,9,48.74,18.44,54.71q3.91,2.48,7.7,5.14c10,7.09,20.39,4.9,30.77,1.1.61-.22.87-1.38,1.29-2.11Z"/><path class="cls-2" d="M51.63,6.94c3.21,2.1,6.48,4.13,9.59,6.36a13.12,13.12,0,0,1,2.32,3,9.85,9.85,0,0,0,.56,2.6c3.08,5.66,1.82,11.73,1.78,17.69-.26.15-.6.24-.76.46-1.7,2.42-2.49,5.76-6.24,6.16-.28,0-.6.78-.69,1.24-.5,2.5-2.12,3.44-4.51,3.38-3.39-.67-6.82-1.19-10.15-2.08a40.37,40.37,0,0,1-5.78-2.53c2.51-.09,3.73-1.28,3.73-3.91,0-1.86.72-3.11,3-1.94,1.63.85,2.53.11,3-1.64.8-3.35.71-3.53-2.8-4-.88-.12-1.74-.36-2.61-.55-1-2.55-2.55-4.41-5.38-4.93l-3.27-6c1.45-1.19,2.76-2.32,4.13-3.36a12,12,0,0,1,3.43-2.25c.84-.25,2,.46,3,.74a10.16,10.16,0,0,1-1,2.49A7.07,7.07,0,0,1,41,19.21c2.83,2.62,3.24,2.82,4.62,1.45,2.35-2.34,4.53-4.81,4.15-8.56-.07-.7.56-1.47.84-2.23C51,8.9,51.28,7.92,51.63,6.94Zm7.8,31.52,1.83-7.83H56.41l-1.95-.14c-.9,1.38-2.47,2.74-2.53,4.15-.08,2.07,1.54,3.53,3.83,3.8v4.78l1,.22Z"/><path class="cls-3" d="M37.75,43.2a40.37,40.37,0,0,0,5.78,2.53c3.33.89,6.76,1.41,10.14,2.08l-1.8,3.25c-1.13.5-2.25,1-3.4,1.48-1.32.51-2.68.93-4,1.39l-6-3c-1.13-2.52-3.24-.73-4.86-1.11-.83-3.37-3.47-3.09-6-3l-.51-.11L25.8,38.4a69.06,69.06,0,0,1,.69-7.07c.42-2.19.83-4-1.73-5.27-.51-.25-.42-1.73-.6-2.65,1.42-2.2.6-3.94-1.14-5.49s-1.71-3.15.08-4.77c1-.92,1.85-2.06,3.33-3.74l-8.09,2.51C25.16,4.42,33.71,3,43.19,4.83L39.28,6.52c.23.7.47,1.34.66,2s.31,1.24.49,2C37,9.7,35.24,10.12,34,11.6a6.3,6.3,0,0,1-2.49,2.1c-2,.7-3.34,1.41-1.85,3.76a2,2,0,0,1,.12,1.66c-1.8,3.67-1.33,7.24.08,10.9.38,1,.08,2.25,0,3.39a22.93,22.93,0,0,0-.2,2.6C30.1,41,34.18,41.8,37.75,43.2Z"/><path class="cls-4" d="M37.75,43.2c-3.57-1.4-7.65-2.25-8-7.19a22.93,22.93,0,0,1,.2-2.6c.05-1.14.35-2.4,0-3.39-1.41-3.66-1.88-7.23-.08-10.9a2,2,0,0,0-.12-1.66c-1.49-2.35-.17-3.06,1.85-3.76A6.3,6.3,0,0,0,34,11.6c1.2-1.48,2.92-1.9,6.39-1.12-.18-.74-.32-1.37-.49-2s-.43-1.28-.66-2l3.91-1.69,8.44,2.11c-.35,1-.68,2-1.05,2.93-.28.76-.91,1.53-.84,2.23.38,3.75-1.8,6.22-4.15,8.56C44.21,22,43.8,21.83,41,19.21a7.07,7.07,0,0,0,1.94-1.36,10.16,10.16,0,0,0,1-2.49c-1-.28-2.16-1-3-.74a12,12,0,0,0-3.43,2.25c-1.37,1-2.68,2.17-4.13,3.36l3.27,6c-1.68,3.1-2.52,6.19.26,9.75L42,31.19c.87.19,1.73.43,2.61.55,3.51.44,3.6.62,2.8,4-.42,1.75-1.32,2.49-3,1.64-2.27-1.17-3,.08-3,1.94C41.48,41.92,40.26,43.11,37.75,43.2ZM41.2,9.59l5,2.23.44-1C45.78,8.86,44.13,8.74,41.2,9.59Z"/><path class="cls-5" d="M58.2,58.84c-.42.73-.68,1.89-1.29,2.11-10.38,3.8-20.75,6-30.77-1.1q-3.78-2.67-7.7-5.14C9,48.74,7.31,39.36,7.31,29.27a5.89,5.89,0,0,1,.54-1.7c.38,2.05.88,4.08,1.12,6.14.81,6.95,3.29,12.73,10.31,15.54,1.95.78,3.87,1.6,5.81,2.41l.24,2.24C24,55.44,24,56.82,26,57.66c3.39,1.41,6.74,3.11,10.28,3.89,3,.67,6.21.2,9.33.24l7.75-2.54,3-2.28Z"/><path class="cls-6" d="M65.88,36.57c0-6,1.3-12-1.78-17.69a9.85,9.85,0,0,1-.56-2.6c4.46,3.17,5.95,8.1,6.41,13s-.37,10.07-.78,15.11c0,.64-.89,1.22-1.37,1.83a29.67,29.67,0,0,0-2.88,1.43C63.24,48.68,61.63,49.86,60,51c1.21-1.72,2.15-3.75,3.68-5.11C67.29,42.67,67.86,40.92,65.88,36.57Z"/><path class="cls-7" d="M25.09,51.66c-1.94-.81-3.86-1.63-5.81-2.41-7-2.81-9.5-8.59-10.31-15.54-.24-2.06-.74-4.09-1.12-6.14a92,92,0,0,1,3.68-9.07c.86-1.63,2.6-2.79,3.94-4.17l0,3.57-1.59,3.17c-2.57.6-4,2.61-3.52,4.82a166.93,166.93,0,0,0,5.18,18.37c.65,1.84,2.6,4,5.5,2.51l3.57.06h0c.18.6.36,1.2.53,1.8l.6,1.85Z"/><path class="cls-8" d="M15.44,17.9l0-3.57,2.87-2.41,8.09-2.51c-1.48,1.68-2.31,2.82-3.33,3.74-1.79,1.62-1.89,3.16-.08,4.77s2.56,3.29,1.14,5.49l-5.37,4.5C18,25.79,15,25.25,16,22.12,16.36,20.89,15.65,19.32,15.44,17.9Z"/><path class="cls-9" d="M60,51c1.64-1.13,3.25-2.31,4.93-3.37a29.67,29.67,0,0,1,2.88-1.43c.47,2.87-1.53,4.59-3,6.55L60,55.24l-1.87-1.3L60,51.05Z"/><path class="cls-10" d="M60,55.24l4.75-2.5a6.76,6.76,0,0,1-6,6Z"/><path class="cls-11" d="M60,55.24l-1.23,3.55-.59.05C57.59,58.22,57,57.6,56.36,57c.59-1,1.19-2,1.79-3Z"/><path class="cls-12" d="M65.88,36.57c2,4.35,1.41,6.1-2.21,9.31C62.14,47.24,61.2,49.27,60,51l0,.06c-1.76.72-3.51,1.46-5.28,2.15-.82.31-1.68.53-2.52.79l-.36-2.93,1.8-3.25c2.4.06,4-.88,4.52-3.38.09-.46.41-1.21.69-1.24,3.75-.4,4.54-3.74,6.24-6.16C65.28,36.81,65.62,36.72,65.88,36.57Z"/><path class="cls-13" d="M42,31.19,36.89,36c-2.78-3.56-1.94-6.65-.26-9.75C39.46,26.78,41.05,28.64,42,31.19Z"/><path class="cls-14" d="M54.46,30.49l1.95.14,3,7.83-2.71,5-1-.22V33.46l-2,.34Z"/><path class="cls-15" d="M59.43,38.46l-3-7.83h4.85C60.6,33.47,60,36,59.43,38.46Z"/><path class="cls-16" d="M54.46,30.49l-.73,3.31,2-.34v5c-2.29-.27-3.91-1.73-3.83-3.8C52,33.23,53.56,31.87,54.46,30.49Z"/><path class="cls-17" d="M15.44,17.9c.21,1.42.92,3,.53,4.22-1,3.13,2,3.67,2.82,5.79l5.37-4.5c.18.92.09,2.4.6,2.65,2.56,1.23,2.15,3.08,1.73,5.27a69.06,69.06,0,0,0-.69,7.07c-4.28,1.15-4.8,4.74-1.22,8.43L21,46.77c-.45-.77-.84-1.57-1.34-2.3A23.69,23.69,0,0,1,15.51,33.4a14.36,14.36,0,0,0-2.25-5.9c-1-1.53-1.56-2.67-.29-4.25a7.84,7.84,0,0,0,.88-2.18ZM22.31,27l-4.15,6.88C22.1,35.2,23.48,33,22.31,27Z"/><path class="cls-18" d="M51.87,51.06,52.23,54l-.73,1.26a51.49,51.49,0,0,0-7.37,2,8.46,8.46,0,0,1-7.16,0c-3.18-1.33-6.56-2.23-9.86-3.31l-.05,0,0-1.74h.5l10.28,3,6.63-1.26c1.34-.46,2.7-.88,4-1.39C49.62,52.1,50.74,51.56,51.87,51.06Z"/><path class="cls-17" d="M37.82,55.19l-10.28-3,6.06-2.32c1.62.38,3.73-1.41,4.86,1.11C38.24,52.36,38,53.78,37.82,55.19Z"/><path class="cls-19" d="M24.58,46.83C21,43.14,21.52,39.55,25.8,38.4c.42,2.77.84,5.55,1.27,8.32l-.67.08-1.84,0Z"/><path class="cls-20" d="M33.6,49.84l-6.06,2.32H27c-.2-.59-.39-1.17-.59-1.75l1.13-3.58C30.13,46.75,32.77,46.47,33.6,49.84Z"/><path class="cls-21" d="M37.82,55.19c.21-1.41.42-2.83.64-4.24l6,3Z"/><path class="cls-17" d="M27.58,46.83c-.37,1.2-.75,2.39-1.13,3.58l-.76.07c-.2-.62-.4-1.23-.59-1.85l1.3-1.83.67-.08Z"/><path class="cls-22" d="M41.2,9.59c2.93-.85,4.58-.73,5.41,1.24l-.44,1Z"/><path class="cls-23" d="M27.11,53.94c3.3,1.08,6.68,2,9.86,3.31a8.46,8.46,0,0,0,7.16,0,51.49,51.49,0,0,1,7.37-2c.62,1.34,1.24,2.67,1.85,4L45.6,61.79a26.82,26.82,0,0,0-4-1.74c-3.72-1-7.55-1.6-11.19-2.81C29.07,56.8,28.19,55.08,27.11,53.94Z"/><path class="cls-7" d="M27.11,53.94c1.08,1.14,2,2.86,3.28,3.3,3.64,1.21,7.47,1.81,11.19,2.81a26.82,26.82,0,0,1,4,1.74c-3.12,0-6.35.43-9.33-.24-3.54-.78-6.89-2.48-10.28-3.89-2-.84-2-2.22-.66-3.76h1.73Z"/><path class="cls-24" d="M53.35,59.25c-.61-1.33-1.23-2.66-1.85-4L52.23,54c.84-.26,1.7-.48,2.52-.79,1.77-.69,3.52-1.43,5.28-2.15l-1.88,2.89c-.6,1-1.2,2-1.79,3Z"/><path class="cls-23" d="M27.06,53.89H25.33l-.24-2.24.6-1.18.76-.07c.2.58.39,1.16.59,1.75C27.05,52.73,27.05,53.31,27.06,53.89Z"/><path class="cls-25" d="M13.85,21.07A7.84,7.84,0,0,1,13,23.25c-1.27,1.58-.68,2.72.29,4.25a14.36,14.36,0,0,1,2.25,5.9,23.69,23.69,0,0,0,4.16,11.07c.5.73.89,1.53,1.34,2.3-2.9,1.5-4.85-.67-5.5-2.51a166.93,166.93,0,0,1-5.18-18.37C9.83,23.68,11.28,21.67,13.85,21.07Z"/><path class="cls-18" d="M26.4,46.8l-1.3,1.83-.54-1.8Z"/><path class="cls-6" d="M22.31,27c1.17,6-.21,8.23-4.15,6.88Z"/></g></g></svg>